<?xml version="1.0" standalone="no"?>
<!DOCTYPE svg PUBLIC "-//W3C//DTD SVG 20010904//EN"
 "http://www.w3.org/TR/2001/REC-SVG-20010904/DTD/svg10.dtd">
<svg version="1.0" xmlns="http://www.w3.org/2000/svg"
 width="900.000000pt" height="900.000000pt" viewBox="0 0 900.000000 900.000000"
 preserveAspectRatio="xMidYMid meet">

<g transform="translate(0.000000,900.000000) scale(0.100000,-0.100000)"
fill="#000000" stroke="none">
<path d="M2257 7504 c-4 -4 -7 -763 -7 -1686 l0 -1678 920 0 920 0 2 -1317 3
-1318 202 -3 203 -2 2 1082 3 1083 451 -530 c249 -292 663 -777 921 -1080
l468 -550 203 -3 202 -2 0 1500 0 1500 -1125 0 -1125 0 0 323 0 324 193 71
c309 114 1817 675 1975 734 l82 31 0 184 0 183 -1125 0 -1125 0 -2 578 -3 577
-197 3 -198 2 0 -580 0 -580 -725 0 -725 0 -2 578 -3 577 -191 3 c-104 1 -193
-1 -197 -4z m1831 -1835 l-3 -311 -100 -39 c-55 -21 -199 -75 -320 -119 -449
-167 -644 -240 -816 -304 -97 -36 -181 -66 -188 -66 -8 0 -11 152 -11 575 l0
575 720 0 720 0 -2 -311z m1642 300 c-25 -11 -283 -107 -805 -301 -148 -55
-305 -113 -347 -129 l-78 -28 0 234 0 235 628 -1 c436 0 619 -3 602 -10z
m-1640 -1224 l0 -245 -657 0 c-361 0 -654 2 -652 4 2 2 128 50 279 106 151 57
442 165 645 241 204 76 373 138 378 139 4 0 7 -110 7 -245z m2250 -1607 l0
-1003 -24 25 c-13 14 -362 423 -777 910 -414 487 -788 927 -832 978 l-79 92
856 0 856 0 0 -1002z"/>
</g>
</svg>
